<?xml version="1.0" encoding="UTF-8"?>
<svg xmlns="http://www.w3.org/2000/svg" xmlns:xlink="http://www.w3.org/1999/xlink" width="50px" height="150px" viewBox="0 0 50 50" version="1.1">
<g id="surface1">
<path style=" stroke:none;fill-rule:nonzero;fill:rgb(100%,100%,100%);fill-opacity:1;" d="M 32.191406 2.300781 C 31.148438 2.199219 30.109375 2.113281 29.0625 2.140625 C 26.078125 2.207031 23.261719 2.921875 20.605469 4.289062 C 18.597656 5.320312 16.832031 6.671875 15.296875 8.328125 C 12.75 11.070312 11.148438 14.292969 10.453125 17.964844 C 10.136719 19.648438 10.054688 21.351562 10.203125 23.066406 C 10.539062 27.015625 11.933594 30.542969 14.421875 33.617188 C 17.351562 37.234375 21.117188 39.507812 25.667969 40.457031 C 27.5 40.839844 29.355469 40.929688 31.214844 40.757812 C 39.863281 39.964844 46.445312 33.699219 48.28125 26.074219 C 48.457031 25.347656 48.601562 24.617188 48.683594 23.875 C 48.707031 23.679688 48.742188 23.488281 48.839844 23.296875 C 48.851562 23.378906 48.878906 23.460938 48.882812 23.542969 C 49.007812 25.15625 48.910156 26.757812 48.691406 28.359375 C 48.378906 30.640625 47.738281 32.828125 46.777344 34.921875 C 45.945312 36.734375 44.902344 38.414062 43.648438 39.96875 C 42.835938 40.980469 41.945312 41.914062 40.988281 42.785156 C 39.746094 43.910156 38.394531 44.890625 36.941406 45.726562 C 34.773438 46.976562 32.46875 47.871094 30.015625 48.390625 C 27.925781 48.832031 25.820312 48.996094 23.683594 48.878906 C 20.289062 48.695312 17.085938 47.828125 14.058594 46.277344 C 13.574219 46.164062 13.25 45.742188 12.769531 45.625 C 12.566406 45.378906 12.238281 45.332031 12.011719 45.136719 C 11.78125 44.941406 11.480469 44.855469 11.285156 44.621094 C 10.882812 44.453125 10.617188 44.078125 10.222656 43.894531 C 10.027344 43.605469 9.632812 43.539062 9.472656 43.210938 C 9.234375 43.117188 9.0625 42.9375 8.890625 42.765625 C 8.484375 42.351562 8.089844 41.929688 7.683594 41.515625 C 7.480469 41.304688 7.253906 41.109375 7.054688 40.890625 C 6.726562 40.523438 6.417969 40.144531 6.109375 39.761719 C 5.828125 39.410156 5.574219 39.03125 5.316406 38.660156 C 4.882812 38.035156 4.464844 37.390625 4.105469 36.71875 C 3.238281 35.09375 2.503906 33.410156 1.996094 31.636719 C 1.261719 29.058594 0.953125 26.433594 1.09375 23.761719 C 1.246094 20.714844 1.964844 17.804688 3.222656 15.019531 C 3.605469 14.179688 4.035156 13.363281 4.507812 12.574219 C 4.929688 11.867188 5.386719 11.179688 5.898438 10.523438 C 6.25 10.074219 6.589844 9.609375 6.972656 9.191406 C 7.539062 8.574219 8.046875 7.890625 8.75 7.402344 C 8.828125 7.347656 8.871094 7.246094 8.941406 7.179688 C 9.082031 7.042969 9.21875 6.894531 9.382812 6.785156 C 9.523438 6.695312 9.667969 6.632812 9.75 6.472656 C 9.785156 6.40625 9.863281 6.339844 9.933594 6.3125 C 10.09375 6.25 10.195312 6.128906 10.3125 6.015625 C 10.425781 5.910156 10.570312 5.832031 10.695312 5.738281 C 11.070312 5.457031 11.46875 5.203125 11.859375 4.941406 C 12.0625 4.808594 12.304688 4.738281 12.472656 4.566406 C 12.632812 4.398438 12.863281 4.371094 13.039062 4.207031 C 13.234375 4.027344 13.535156 3.964844 13.78125 3.835938 C 16.132812 2.582031 18.378906 1.902344 20.191406 1.53125 C 22.054688 1.152344 23.933594 0.996094 25.832031 1.0625 C 27.929688 1.132812 29.984375 1.472656 31.996094 2.089844 C 32.089844 2.117188 32.179688 2.160156 32.273438 2.195312 C 32.242188 2.230469 32.214844 2.265625 32.1875 2.300781 Z M 32.191406 2.300781 "/>
<path style=" stroke:none;fill-rule:nonzero;fill:rgb(100%,100%,100%);fill-opacity:1;" d="M 32.234375 22.75 C 32.425781 22.550781 32.570312 22.390625 32.71875 22.242188 C 33.046875 21.914062 33.386719 21.59375 33.707031 21.257812 C 33.839844 21.117188 33.960938 20.957031 34.039062 20.78125 C 34.433594 19.929688 34.433594 19.085938 33.90625 18.28125 C 33.785156 18.089844 33.644531 17.917969 33.488281 17.75 C 33.277344 17.523438 33.070312 17.28125 32.914062 17.019531 C 32.816406 16.855469 32.660156 16.769531 32.558594 16.621094 C 32.46875 16.488281 32.394531 16.351562 32.273438 16.230469 C 32.070312 16.023438 31.898438 15.78125 31.71875 15.550781 C 31.539062 15.320312 31.402344 15.050781 31.195312 14.851562 C 31.03125 14.699219 30.945312 14.503906 30.800781 14.359375 C 30.660156 14.214844 30.539062 14.074219 30.4375 13.898438 C 30.359375 13.765625 30.226562 13.667969 30.136719 13.523438 C 29.398438 12.328125 29.53125 11.171875 30.234375 10.027344 C 30.3125 9.902344 30.425781 9.796875 30.53125 9.691406 C 32.042969 8.175781 33.554688 6.664062 35.070312 5.148438 C 35.117188 5.101562 35.160156 5.054688 35.210938 5.007812 C 35.320312 4.914062 35.414062 4.90625 35.515625 5.007812 C 35.683594 5.167969 35.84375 5.335938 36.003906 5.503906 C 36.164062 5.667969 36.324219 5.835938 36.476562 5.988281 C 36.480469 6.152344 36.363281 6.207031 36.285156 6.285156 C 35.515625 7.058594 34.753906 7.847656 33.960938 8.601562 C 33.074219 9.445312 32.800781 10.894531 33.582031 12.058594 C 33.617188 12.113281 33.648438 12.175781 33.691406 12.222656 C 34.476562 13.183594 35.265625 14.144531 36.054688 15.101562 C 36.402344 15.523438 36.75 15.945312 37.09375 16.367188 C 37.59375 16.984375 37.867188 17.675781 37.8125 18.480469 C 37.769531 19.164062 37.542969 19.777344 37.054688 20.273438 C 36.4375 20.898438 35.8125 21.515625 35.191406 22.140625 C 35.03125 22.304688 34.878906 22.480469 34.691406 22.683594 C 34.78125 22.714844 34.835938 22.746094 34.886719 22.75 C 35.203125 22.753906 35.519531 22.75 35.828125 22.75 C 35.933594 22.632812 36.027344 22.519531 36.128906 22.417969 C 36.585938 21.960938 37.023438 21.480469 37.503906 21.046875 C 38.621094 20.039062 40.257812 19.84375 41.480469 20.820312 C 42.179688 21.378906 42.875 21.941406 43.558594 22.515625 C 43.761719 22.691406 43.96875 22.757812 44.230469 22.757812 C 45.507812 22.746094 46.785156 22.753906 48.0625 22.753906 L 48.59375 22.753906 C 48.574219 22.855469 48.574219 22.9375 48.542969 23.003906 C 48.453125 23.179688 48.351562 23.351562 48.238281 23.550781 C 47.699219 23.554688 47.152344 23.554688 46.609375 23.554688 C 46.078125 23.554688 45.554688 23.554688 45.042969 23.554688 C 44.980469 23.660156 45.03125 23.703125 45.082031 23.746094 C 45.183594 23.832031 45.289062 23.910156 45.386719 24.003906 C 45.515625 24.121094 45.660156 24.167969 45.835938 24.164062 C 46.300781 24.15625 46.765625 24.160156 47.230469 24.160156 C 47.394531 24.160156 47.5625 24.160156 47.761719 24.160156 C 47.746094 24.257812 47.746094 24.339844 47.714844 24.402344 C 47.632812 24.582031 47.535156 24.757812 47.4375 24.949219 C 47.304688 24.957031 47.171875 24.972656 47.042969 24.972656 C 46.480469 24.972656 45.914062 24.992188 45.351562 24.964844 C 45.0625 24.949219 44.878906 25.058594 44.734375 25.285156 C 44.683594 25.363281 44.640625 25.445312 44.574219 25.554688 C 45.042969 25.617188 45.472656 25.578125 45.898438 25.589844 C 46.308594 25.597656 46.71875 25.585938 47.152344 25.59375 C 47.160156 25.789062 47.0625 25.90625 47 26.035156 C 46.941406 26.152344 46.875 26.265625 46.800781 26.402344 L 43.863281 26.402344 C 43.703125 26.59375 43.554688 26.765625 43.386719 26.960938 C 43.210938 26.886719 43.074219 26.761719 42.949219 26.640625 C 42.753906 26.453125 42.53125 26.402344 42.269531 26.40625 C 40.757812 26.414062 39.25 26.410156 37.738281 26.410156 C 36.777344 26.410156 35.8125 26.414062 34.851562 26.40625 C 34.617188 26.402344 34.449219 26.476562 34.285156 26.644531 C 33.691406 27.246094 33.089844 27.839844 32.492188 28.4375 C 32.421875 28.507812 32.367188 28.589844 32.289062 28.683594 C 32.839844 29.234375 33.378906 29.773438 33.890625 30.285156 C 33.902344 30.34375 33.910156 30.359375 33.910156 30.375 C 33.90625 30.390625 33.898438 30.40625 33.886719 30.417969 C 32.433594 31.875 30.980469 33.332031 29.527344 34.789062 C 29.449219 34.871094 29.363281 34.945312 29.253906 35.046875 C 29.183594 34.996094 29.117188 34.957031 29.0625 34.902344 C 27.59375 33.4375 26.128906 31.96875 24.664062 30.5 C 24.628906 30.464844 24.601562 30.421875 24.554688 30.367188 C 24.789062 30.023438 25.117188 29.769531 25.398438 29.472656 C 25.671875 29.1875 25.957031 28.910156 26.257812 28.605469 C 26.179688 28.519531 26.121094 28.445312 26.058594 28.378906 C 25.484375 27.804688 24.902344 27.234375 24.335938 26.652344 C 24.175781 26.488281 24.011719 26.402344 23.773438 26.402344 C 21.167969 26.410156 18.5625 26.410156 15.957031 26.40625 C 15.746094 26.40625 15.566406 26.4375 15.410156 26.59375 C 15.332031 26.675781 15.230469 26.734375 15.109375 26.824219 C 14.984375 26.691406 14.859375 26.566406 14.714844 26.414062 L 12.359375 26.414062 C 12.148438 26.1875 12.0625 25.921875 11.925781 25.636719 C 12.027344 25.617188 12.101562 25.59375 12.175781 25.59375 C 12.640625 25.589844 13.105469 25.59375 13.570312 25.589844 C 13.703125 25.589844 13.832031 25.578125 13.992188 25.570312 C 13.933594 25.332031 13.777344 25.183594 13.625 25.042969 C 13.5625 24.984375 13.441406 24.976562 13.347656 24.976562 C 12.949219 24.96875 12.550781 24.972656 12.152344 24.972656 C 12.003906 24.972656 11.855469 24.972656 11.703125 24.972656 C 11.550781 24.714844 11.402344 24.480469 11.324219 24.167969 L 12.789062 24.167969 C 12.988281 23.96875 13.152344 23.808594 13.34375 23.613281 C 13.257812 23.589844 13.203125 23.558594 13.152344 23.558594 C 12.570312 23.554688 11.988281 23.554688 11.410156 23.554688 C 11.242188 23.554688 11.078125 23.554688 10.890625 23.554688 C 10.746094 23.316406 10.609375 23.082031 10.472656 22.851562 C 10.5625 22.707031 10.691406 22.753906 10.796875 22.753906 C 11.84375 22.75 12.886719 22.75 13.933594 22.75 C 14.097656 22.75 14.265625 22.75 14.394531 22.75 C 14.523438 22.644531 14.621094 22.566406 14.71875 22.484375 C 14.828125 22.386719 14.925781 22.28125 15.039062 22.195312 C 15.144531 22.113281 15.257812 22.050781 15.367188 21.980469 C 15.394531 21.964844 15.433594 21.949219 15.445312 21.925781 C 15.617188 21.609375 16.003906 21.535156 16.199219 21.242188 C 16.308594 21.078125 16.535156 21.070312 16.660156 20.890625 C 16.761719 20.738281 16.945312 20.632812 17.109375 20.535156 C 18.410156 19.792969 19.789062 19.914062 20.75 20.804688 C 21.273438 21.289062 21.765625 21.808594 22.269531 22.3125 C 22.363281 22.40625 22.464844 22.492188 22.550781 22.59375 C 22.660156 22.714844 22.789062 22.757812 22.949219 22.753906 C 23.230469 22.746094 23.511719 22.75 23.839844 22.75 C 23.800781 22.671875 23.785156 22.605469 23.746094 22.570312 C 23.640625 22.46875 23.511719 22.390625 23.410156 22.285156 C 22.84375 21.722656 22.28125 21.15625 21.71875 20.597656 C 21.339844 20.222656 21.050781 19.789062 20.894531 19.277344 C 20.605469 18.339844 20.703125 17.457031 21.25 16.625 C 21.375 16.429688 21.515625 16.261719 21.664062 16.085938 C 21.8125 15.914062 21.910156 15.707031 22.101562 15.558594 C 22.265625 15.425781 22.328125 15.210938 22.492188 15.058594 C 22.738281 14.828125 22.925781 14.53125 23.128906 14.257812 C 23.304688 14.019531 23.546875 13.835938 23.675781 13.566406 C 23.886719 13.464844 23.933594 13.230469 24.070312 13.070312 C 24.210938 12.914062 24.378906 12.785156 24.488281 12.59375 C 24.613281 12.371094 24.835938 12.214844 24.992188 12 C 25.566406 11.214844 25.585938 9.890625 24.980469 9.105469 C 24.871094 8.964844 24.757812 8.835938 24.628906 8.710938 C 23.984375 8.085938 23.355469 7.449219 22.722656 6.8125 C 22.511719 6.605469 22.394531 6.3125 22.070312 6.191406 C 22.089844 6.070312 22.066406 5.925781 22.128906 5.859375 C 22.429688 5.53125 22.742188 5.214844 23.078125 4.894531 C 23.167969 4.957031 23.242188 4.992188 23.296875 5.046875 C 24.882812 6.628906 26.476562 8.203125 28.046875 9.800781 C 28.875 10.640625 29.085938 11.65625 28.757812 12.785156 C 28.65625 13.128906 28.472656 13.421875 28.257812 13.695312 C 27.671875 14.433594 27.074219 15.164062 26.484375 15.894531 C 25.921875 16.589844 25.355469 17.28125 24.800781 17.980469 C 24.023438 18.960938 24.0625 20.449219 24.898438 21.371094 C 25.285156 21.800781 25.714844 22.195312 26.121094 22.613281 C 26.222656 22.71875 26.335938 22.753906 26.476562 22.75 C 26.941406 22.746094 27.402344 22.75 27.867188 22.75 C 29.328125 22.75 30.789062 22.75 32.234375 22.75 Z M 22.65625 24.992188 C 22.589844 24.980469 22.558594 24.972656 22.523438 24.972656 C 20.914062 24.972656 19.308594 24.972656 17.699219 24.96875 C 17.523438 24.96875 17.375 25.003906 17.246094 25.128906 C 17.175781 25.195312 17.089844 25.246094 17.015625 25.316406 C 16.941406 25.386719 16.800781 25.410156 16.816406 25.554688 C 16.855469 25.570312 16.886719 25.589844 16.914062 25.589844 C 18.9375 25.589844 20.960938 25.589844 22.980469 25.589844 C 23.035156 25.589844 23.09375 25.558594 23.167969 25.535156 C 22.976562 25.328125 22.808594 25.148438 22.65625 24.992188 Z M 35.414062 25.535156 C 35.519531 25.570312 35.550781 25.589844 35.582031 25.589844 C 37.519531 25.589844 39.453125 25.589844 41.394531 25.589844 C 41.429688 25.589844 41.460938 25.546875 41.523438 25.507812 C 41.386719 25.398438 41.261719 25.316406 41.160156 25.214844 C 40.957031 25.011719 40.71875 24.960938 40.4375 24.964844 C 39.082031 24.976562 37.722656 24.96875 36.367188 24.96875 L 35.996094 24.96875 C 35.796875 25.164062 35.621094 25.335938 35.414062 25.535156 Z M 27.671875 24.148438 L 30.886719 24.148438 C 30.980469 24.0625 31.066406 23.988281 31.144531 23.902344 C 31.226562 23.808594 31.351562 23.746094 31.378906 23.613281 C 31.347656 23.585938 31.339844 23.566406 31.328125 23.566406 C 29.972656 23.566406 28.621094 23.5625 27.265625 23.5625 C 27.25 23.5625 27.230469 23.5625 27.21875 23.570312 C 27.207031 23.578125 27.203125 23.597656 27.175781 23.65625 C 27.316406 23.824219 27.484375 23.996094 27.671875 24.148438 Z M 18.585938 24.105469 C 18.609375 24.125 18.632812 24.15625 18.652344 24.15625 C 19.628906 24.15625 20.605469 24.15625 21.578125 24.152344 C 21.601562 24.152344 21.621094 24.113281 21.644531 24.097656 C 21.25 23.738281 20.734375 23.558594 20.109375 23.5625 C 19.492188 23.5625 18.980469 23.746094 18.585938 24.105469 Z M 31.085938 27.480469 C 31.15625 27.429688 31.214844 27.402344 31.261719 27.355469 C 31.550781 27.070312 31.839844 26.78125 32.167969 26.453125 C 31.734375 26.378906 31.363281 26.40625 30.992188 26.421875 C 30.949219 26.425781 30.898438 26.460938 30.867188 26.492188 C 30.753906 26.625 30.585938 26.714844 30.527344 26.894531 C 30.71875 27.09375 30.898438 27.285156 31.085938 27.480469 Z M 36.957031 24.148438 C 37.898438 24.148438 38.769531 24.148438 39.640625 24.148438 C 39.65625 24.148438 39.675781 24.140625 39.679688 24.132812 C 39.6875 24.117188 39.683594 24.101562 39.6875 24.085938 C 39.027344 23.566406 37.605469 23.570312 36.957031 24.152344 Z M 26.746094 25.59375 C 26.515625 25.316406 26.339844 25.132812 26.121094 24.96875 C 25.828125 24.96875 25.53125 24.96875 25.234375 24.972656 C 25.179688 24.972656 25.128906 25.003906 25.066406 25.023438 C 25.320312 25.453125 25.648438 25.671875 26.140625 25.59375 C 26.300781 25.570312 26.46875 25.589844 26.746094 25.589844 Z M 33.515625 24.984375 C 33.378906 24.960938 33.253906 24.972656 33.125 24.96875 C 33.011719 24.96875 32.894531 24.96875 32.78125 24.96875 C 32.648438 24.96875 32.519531 24.96875 32.394531 24.96875 C 32.203125 25.160156 32.03125 25.332031 31.824219 25.539062 C 31.9375 25.566406 31.996094 25.589844 32.058594 25.589844 C 32.257812 25.59375 32.453125 25.59375 32.652344 25.59375 C 33.085938 25.589844 33.265625 25.46875 33.515625 24.984375 Z M 26.402344 26.425781 C 26.796875 26.816406 27.101562 27.113281 27.410156 27.417969 C 27.644531 27.238281 27.828125 27.058594 28 26.828125 C 27.878906 26.703125 27.785156 26.59375 27.675781 26.496094 C 27.628906 26.453125 27.5625 26.421875 27.5 26.417969 C 27.175781 26.402344 26.847656 26.402344 26.402344 26.421875 Z M 33.304688 24.066406 C 33.71875 24.15625 34.105469 24.1875 34.515625 24.132812 C 34.621094 24.019531 34.730469 23.898438 34.84375 23.777344 C 34.898438 23.71875 34.976562 23.671875 34.921875 23.570312 L 33.820312 23.570312 C 33.632812 23.75 33.46875 23.90625 33.304688 24.066406 Z M 28.605469 24.996094 C 28.714844 25.207031 28.949219 25.492188 29.066406 25.546875 C 29.207031 25.613281 29.355469 25.609375 29.492188 25.546875 C 29.597656 25.5 29.855469 25.183594 29.96875 24.972656 C 29.628906 24.96875 29.308594 24.96875 28.984375 24.972656 C 28.859375 24.972656 28.730469 24.945312 28.605469 24.996094 Z M 25.308594 24.148438 C 25.191406 24.015625 25.140625 23.953125 25.085938 23.898438 C 24.972656 23.78125 24.851562 23.671875 24.734375 23.558594 C 24.394531 23.558594 24.066406 23.558594 23.738281 23.558594 C 23.714844 23.558594 23.691406 23.589844 23.636719 23.621094 C 23.769531 23.828125 23.964844 23.972656 24.132812 24.148438 Z M 25.308594 24.148438 "/>
<path style=" stroke:none;fill-rule:nonzero;fill:rgb(100%,100%,100%);fill-opacity:1;" d="M 32.273438 2.195312 C 32.355469 2.226562 32.4375 2.253906 32.519531 2.28125 L 32.507812 2.339844 C 32.402344 2.328125 32.296875 2.3125 32.191406 2.300781 C 32.21875 2.265625 32.246094 2.230469 32.273438 2.195312 Z M 32.273438 2.195312 "/>
</g>
</svg>
