<?xml version="1.0" encoding="UTF-8"?>
<svg xmlns="http://www.w3.org/2000/svg" xmlns:xlink="http://www.w3.org/1999/xlink" width="50px" height="150px" viewBox="0 0 50 50" version="1.1">
<g id="surface1">
<path style=" stroke:none;fill-rule:nonzero;fill:rgb(100%,100%,100%);fill-opacity:1;" d="M 33.921875 9.152344 L 33.921875 29.894531 L 31.480469 29.894531 L 31.480469 26.234375 L 18.863281 26.234375 C 18.449219 26.234375 18.050781 26.398438 17.757812 26.691406 L 17.757812 38.738281 L 15.777344 38.738281 C 15.484375 38.445312 15.320312 38.046875 15.320312 37.632812 L 15.320312 20.589844 C 15.953125 20.03125 16.34375 19.65625 16.933594 19.070312 C 17.261719 18.742188 17.453125 18.566406 17.796875 18.253906 C 17.765625 18.652344 17.769531 18.824219 17.761719 19.371094 C 17.738281 20.582031 17.816406 21.816406 17.761719 23.03125 C 18.054688 23.324219 18.449219 23.488281 18.863281 23.488281 L 31.484375 23.488281 L 31.484375 9.152344 L 33.925781 9.152344 Z M 33.921875 9.152344 "/>
<path style=" stroke:none;fill-rule:nonzero;fill:rgb(100%,100%,100%);fill-opacity:1;" d="M 10.4375 18.152344 L 24.621094 6.101562 L 29.347656 10.21875 L 29.347656 13.117188 L 24.621094 9.457031 C 24.191406 9.828125 23.832031 10.320312 23.398438 10.675781 C 20.605469 12.976562 17.609375 15.351562 14.859375 17.691406 C 14.21875 18.238281 13.6875 18.597656 12.878906 19.21875 L 12.878906 34.773438 L 10.4375 34.773438 L 10.4375 18.148438 Z M 10.4375 18.152344 "/>
<path style=" stroke:none;fill-rule:nonzero;fill:rgb(100%,100%,100%);fill-opacity:1;" d="M 38.800781 34.773438 C 36.625 34.828125 34.425781 34.695312 32.246094 34.773438 C 29.988281 34.851562 27.804688 34.875 25.535156 34.773438 C 23.863281 34.699219 22.171875 34.828125 20.503906 34.773438 L 20.503906 32.332031 L 36.363281 32.332031 L 36.363281 16.167969 L 38.804688 18.148438 L 38.804688 34.773438 Z M 38.800781 34.773438 "/>
<path style=" stroke:none;fill-rule:nonzero;fill:rgb(100%,100%,100%);fill-opacity:1;" d="M 33.921875 37.519531 L 33.921875 46.210938 C 33.628906 46.503906 33.230469 46.667969 32.816406 46.667969 L 31.484375 46.667969 L 31.484375 37.515625 L 33.921875 37.515625 Z M 33.921875 37.519531 "/>
<path style=" stroke:none;fill-rule:nonzero;fill:rgb(100%,100%,100%);fill-opacity:1;" d="M 17.757812 3.359375 L 17.757812 9 C 16.949219 9.628906 16.304688 10.902344 15.316406 10.980469 L 15.316406 3.359375 Z M 17.757812 3.359375 "/>
</g>
</svg>
