<?xml version="1.0" encoding="UTF-8"?>
<svg id="katman_1" xmlns="http://www.w3.org/2000/svg" version="1.1" viewBox="0 0 1000 1000">
  <!-- Generator: Adobe Illustrator 29.7.1, SVG Export Plug-In . SVG Version: 2.1.1 Build 8)  -->
  <defs>
    <style>
      .st0, .st1 {
        fill: #fff;
      }

      .st1, .st2 {
        display: none;
      }
    </style>
  </defs>
  <rect x="0" width="999.02" height="998.65" rx="295.04" ry="295.04"/>
  <path class="st0" d="M504.83,611.82c-158.82,0-280.5-111.56-280.5-111.56,0,0,128.12-112.09,280.3-112.09s271.05,112.09,271.05,112.09c0,0-112.02,111.56-270.85,111.56Z"/>
  <rect x="414.69" y="418.41" width="170.62" height="163.18"/>
  <path class="st1" d="M241.03,3289.29L-2694.77,687.38c-139.13-139.13-139.13-364.69,0-503.82L241.03-2190.31c139.13-139.13,364.69-139.13,503.82,0L3680.64,183.56c139.13,139.13,139.13,364.69,0,503.82L744.84,3289.29c-139.13,139.13-364.69,139.13-503.82,0Z"/>
  <circle class="st2" cx="492.93" cy="237.13" r="1273.85"/>
</svg>